<?xml version="1.0" standalone="no"?>
<!DOCTYPE svg PUBLIC "-//W3C//DTD SVG 1.1//EN"
"http://www.w3.org/Graphics/SVG/1.1/DTD/svg11.dtd">
<!-- Creator: fig2dev Version 3.2 Patchlevel 5e -->
<!-- CreationDate: Sat Jan  9 17:43:54 2016 -->
<!-- Magnification: 1.050 -->
<svg	xmlns="http://www.w3.org/2000/svg"
	xmlns:xlink="http://www.w3.org/1999/xlink"
	width="3.5in" height="3.5in"
	viewBox="2502 1971 4218 4229">
<g style="stroke-width:.025in; fill:none">
<!-- Line -->
<polygon points="3496,3826
3968,6188
5622,6188
5622,3118
5007,3118
5007,5574
4913,5574
4771,3826
4724,3118
4110,3118
4346,5149
4251,5149
4062,3826
3496,3826
" style="stroke:#87cfff;stroke-width:0;
stroke-linejoin:miter; stroke-linecap:butt;
fill:#87cfff;
"/>
<!-- Line -->
<polygon points="5811,1984
6188,1984
6236,2409
6283,2409
6330,1984
6708,1984
6708,2409
6330,2409
6330,2503
6708,2503
6708,2929
6330,2929
6283,2503
6236,2503
6188,2929
5811,2929
5811,2503
6188,2503
6188,2409
5811,2409
5811,2125
5811,1984
" style="stroke:#ff8080;stroke-width:8;
stroke-linejoin:miter; stroke-linecap:butt;
fill:#ff8080;
"/>
<!-- Line -->
<polygon points="5811,5244
6188,5244
6236,5669
6283,5669
6330,5244
6708,5244
6708,5669
6330,5669
6330,5763
6708,5763
6708,6188
6330,6188
6283,5763
6236,5763
6188,6188
5811,6188
5811,5763
6188,5763
6188,5669
5811,5669
5811,5385
5811,5244
" style="stroke:#ff8080;stroke-width:8;
stroke-linejoin:miter; stroke-linecap:butt;
fill:#ff8080;
"/>
<!-- Line -->
<polygon points="5811,4157
6188,4157
6236,4582
6283,4582
6330,4157
6708,4157
6708,4582
6330,4582
6330,4677
6708,4677
6708,5102
6330,5102
6283,4677
6236,4677
6188,5102
5811,5102
5811,4677
6188,4677
6188,4582
5811,4582
5811,4299
5811,4157
" style="stroke:#ff8080;stroke-width:8;
stroke-linejoin:miter; stroke-linecap:butt;
fill:#ff8080;
"/>
<!-- Line -->
<polygon points="5811,3070
6188,3070
6236,3496
6283,3496
6330,3070
6708,3070
6708,3496
6330,3496
6330,3590
6708,3590
6708,4015
6330,4015
6283,3590
6236,3590
6188,4015
5811,4015
5811,3590
6188,3590
6188,3496
5811,3496
5811,3212
5811,3070
" style="stroke:#ff8080;stroke-width:8;
stroke-linejoin:miter; stroke-linecap:butt;
fill:#ff8080;
"/>
<!-- Line -->
<polygon points="5622,1984
5622,2929
3921,2929
4015,3685
3165,3685
3685,6188
2503,6188
2503,1984
5622,1984
" style="stroke:#008f8f;stroke-width:0;
stroke-linejoin:miter; stroke-linecap:butt;
fill:#008f8f;
"/>
</g>
</svg>
